<svg xmlns="http://www.w3.org/2000/svg" viewBox="0 0 64 64" fill="none">
  <path d="M18.9 32.6c0 .8.1 1.4.3 1.9.2.5.4.9.8 1.4.1.2.2.3.2.5 0 .2-.1.4-.4.6l-1.3.9c-.2.1-.3.2-.5.2-.2 0-.4-.1-.6-.3-.3-.3-.5-.6-.7-1-.2-.3-.4-.7-.6-1.2-1.6 1.9-3.7 2.8-6.1 2.8-1.7 0-3.1-.5-4.1-1.5-1-.9-1.5-2.2-1.5-3.8 0-1.7.6-3.1 1.8-4.1 1.2-1 2.9-1.5 4.9-1.5.7 0 1.4.1 2.1.2.7.1 1.5.3 2.3.5v-1.5c0-1.5-.3-2.6-1-3.2-.6-.7-1.7-1-3.3-1-.7 0-1.4.1-2.2.3-.7.2-1.5.5-2.2.8-.3.1-.6.2-.7.3-.1 0-.3.1-.3.1-.3 0-.4-.2-.4-.6v-1c0-.3 0-.6.1-.7.1-.1.3-.3.6-.4.7-.4 1.6-.7 2.5-.9.9-.3 1.9-.4 3-.4 2.3 0 4 .5 5 1.6 1 1.1 1.6 2.7 1.6 4.8v6.3zm-8.5 3.2c.7 0 1.4-.1 2.1-.4.7-.3 1.4-.7 1.9-1.3.3-.4.6-.8.7-1.3.1-.5.2-1.1.2-1.8v-.9c-.6-.2-1.2-.3-1.8-.4-.6-.1-1.3-.1-1.9-.1-1.3 0-2.3.3-2.9.8-.6.5-1 1.3-1 2.3 0 .9.2 1.6.7 2.1.5.6 1.2.9 2 .9zm16.9 2.2c-.3 0-.6-.1-.7-.2-.2-.1-.3-.4-.4-.7l-4.7-15.4c-.1-.4-.2-.6-.2-.7 0-.3.1-.5.4-.5h2c.4 0 .6.1.7.2.2.1.3.4.4.7l3.3 13.2 3.1-13.2c.1-.4.2-.6.4-.7.2-.1.5-.2.8-.2h1.6c.4 0 .6.1.8.2.2.1.3.4.4.7l3.1 13.4 3.4-13.4c.1-.4.2-.6.4-.7.2-.1.4-.2.7-.2h1.9c.3 0 .5.2.5.5 0 .1 0 .2-.1.4 0 .1-.1.3-.2.6l-4.8 15.4c-.1.4-.2.6-.4.7-.2.1-.4.2-.7.2h-1.7c-.4 0-.6-.1-.8-.2-.2-.2-.3-.4-.4-.7l-3.1-12.9-3 12.9c-.1.4-.2.6-.4.7-.2.2-.5.2-.8.2h-1.7zm27.1.6c-1 0-2.1-.1-3-.4-1-.3-1.7-.6-2.2-1-.3-.2-.5-.4-.5-.6 0-.2-.1-.4-.1-.6v-1.1c0-.4.1-.6.4-.6.1 0 .2 0 .3.1.1.1.3.1.5.2.7.3 1.4.6 2.2.7.8.2 1.5.3 2.3.3 1.2 0 2.1-.2 2.8-.7.6-.5 1-1.1 1-2 0-.6-.2-1.1-.5-1.5-.4-.4-1-.7-1.9-1l-2.8-.9c-1.4-.4-2.4-1.1-3-2-.6-.8-.9-1.8-.9-2.8 0-.8.2-1.5.5-2.2.3-.6.8-1.2 1.4-1.6.6-.4 1.2-.8 2-1 .8-.2 1.6-.3 2.5-.3.4 0 .9 0 1.4.1.5.1.9.2 1.4.3.4.1.8.3 1.2.4.4.2.7.3.9.5.3.2.5.3.6.5.1.2.2.4.2.7v1c0 .4-.2.6-.4.6-.2 0-.4-.1-.7-.3-1.1-.5-2.3-.8-3.6-.8-1.1 0-1.9.2-2.5.6-.6.4-.9 1-.9 1.8 0 .6.2 1.1.6 1.5.4.4 1.1.7 2.1 1.1l2.7.9c1.3.4 2.3 1 3 1.9.6.8 1 1.7 1 2.8 0 .8-.2 1.6-.5 2.3-.4.7-.8 1.2-1.4 1.7-.6.5-1.3.8-2.2 1-.8.3-1.8.4-2.8.4z" fill="#FFFFFF"/>
  <path d="M52.5 44.7c-6.1 4.5-14.9 6.9-22.5 6.9-10.6 0-20.2-3.9-27.5-10.5-.6-.5-.1-1.2.6-.8 7.8 4.6 17.5 7.3 27.5 7.3 6.7 0 14.2-1.4 21-4.3 1-.5 1.9.7.9 1.4z" fill="#FF9900"/>
  <path d="M55 41.8c-.8-1-5.1-.5-7.1-.2-.6.1-.7-.4-.1-.8 3.5-2.4 9.1-1.7 9.8-.9.7.8-.2 6.3-3.4 8.9-.5.4-1 .2-.8-.3.7-1.9 2.4-6.6 1.6-7.7z" fill="#FF9900"/>
</svg>
