<svg xmlns="http://www.w3.org/2000/svg" viewBox="0 0 32 32">
  <path d="M27.19 12.76a5.92 5.92 0 0 0-.53-5.02 6.15 6.15 0 0 0-6.6-2.93A6.06 6.06 0 0 0 15.5 2a6.14 6.14 0 0 0-5.87 4.27 5.97 5.97 0 0 0-4.05 2.88 6.14 6.14 0 0 0 .74 7.09 5.92 5.92 0 0 0 .53 5.02 6.15 6.15 0 0 0 6.6 2.93A6.07 6.07 0 0 0 18.02 30a6.14 6.14 0 0 0 5.87-4.27 5.97 5.97 0 0 0 4.05-2.88 6.14 6.14 0 0 0-.74-7.09ZM18.02 28.23a4.37 4.37 0 0 1-2.82-1.03l.14-.08 4.68-2.7a.77.77 0 0 0 .38-.66v-6.6l1.98 1.14a.07.07 0 0 1 .04.05v5.47a4.42 4.42 0 0 1-4.4 4.41Zm-9.47-4.05a4.38 4.38 0 0 1-.52-2.95l.14.08 4.68 2.7a.76.76 0 0 0 .76 0l5.72-3.3v2.28a.07.07 0 0 1-.03.06l-4.73 2.73a4.42 4.42 0 0 1-6-1.6Zm-1.23-10.24a4.38 4.38 0 0 1 2.3-1.93v5.56a.76.76 0 0 0 .38.66l5.72 3.3-1.98 1.14a.07.07 0 0 1-.07 0l-4.73-2.73a4.42 4.42 0 0 1-1.62-6Zm16.27 3.78-5.72-3.3 1.98-1.14a.07.07 0 0 1 .07 0l4.73 2.73a4.41 4.41 0 0 1-.67 7.94v-5.57a.76.76 0 0 0-.39-.66Zm1.97-2.97-.14-.08-4.68-2.7a.76.76 0 0 0-.76 0l-5.72 3.3V13a.07.07 0 0 1 .03-.06l4.73-2.73a4.42 4.42 0 0 1 6.54 3.54Zm-12.38 4.07-1.98-1.14a.07.07 0 0 1-.04-.05v-5.47a4.42 4.42 0 0 1 7.22-3.39l-.14.08-4.68 2.7a.77.77 0 0 0-.38.67v6.6Zm1.07-2.32 2.55-1.47 2.55 1.47v2.93l-2.55 1.47-2.55-1.47v-2.93Z" fill="#e8e8e8"/>
</svg>
